<?xml version="1.0" encoding="iso-8859-1"?>
<!-- Generator: Adobe Illustrator 16.0.0, SVG Export Plug-In . SVG Version: 6.00 Build 0)  -->
<!DOCTYPE svg PUBLIC "-//W3C//DTD SVG 1.1//EN" "http://www.w3.org/Graphics/SVG/1.1/DTD/svg11.dtd">
<svg version="1.1" id="Capa_1" xmlns="http://www.w3.org/2000/svg" xmlns:xlink="http://www.w3.org/1999/xlink" x="0px" y="0px"
	 width="218.469px" height="218.469px" viewBox="0 0 218.469 218.469" style="enable-background:new 0 0 218.469 218.469;"
	 xml:space="preserve">
<g>
	<path d="M5.95,34.192c31.266,0,62.528,0,93.792,0c22.366,0,44.722,0,67.084,0c-1.722-2.268-3.454-4.536-5.181-6.807
		c-5.863,23.46-11.728,46.925-17.592,70.382c1.723-1.318,3.454-2.627,5.182-3.945c-33.213,0-66.426,0-99.636,0
		c-3.236,0-6.473,0-9.714,0c1.548,0.887,3.097,1.774,4.64,2.662C33.215,73.024,21.9,49.56,10.591,26.103
		c-3.011-6.247-12.278-0.79-9.284,5.425c11.31,23.457,22.625,46.919,33.936,70.379c0.8,1.666,2.866,2.662,4.638,2.662
		c33.21,0,66.426,0,99.633,0c3.24,0,6.474,0,9.717,0c2.348,0,4.604-1.636,5.182-3.948c5.863-23.458,11.728-46.919,17.591-70.379
		c0.845-3.381-1.628-6.806-5.181-6.806c-31.262,0-62.526,0-93.792,0c-22.36,0-44.723,0-67.085,0
		C-0.976,23.441-0.976,34.192,5.95,34.192z"/>
	<path d="M26.711,118.405c0,8.799,0,17.592,0,26.395c0,2.194,1.832,4.031,4.032,4.031c32.375,0,64.756,0,97.132,0
		c16.337,0,32.673,0,49.01,0c1.648,0,3.606-1.218,3.89-2.966c5.337-32.971,10.682-65.949,16.021-98.922
		c1.532-9.465,3.072-18.932,4.604-28.397c-1.296,0.987-2.594,1.971-3.891,2.961c5.402-0.226,10.804-0.446,16.21-0.672
		c2.179-0.092,4.047-1.764,4.031-4.031c-0.031-4.258-0.058-8.515-0.083-12.772C217.651,1.832,215.846,0,213.636,0
		c-8.483,0-16.955,0-25.439,0c-1.753,0-3.47,1.226-3.89,2.96c-7.9,32.55-15.8,65.104-23.707,97.649
		c-1.543,6.371-3.086,12.735-4.634,19.109c1.296-0.993,2.587-1.974,3.883-2.968c-33.306-0.613-66.611-1.227-99.911-1.841
		c-9.729-0.18-19.459-0.358-29.189-0.535c-5.204-0.101-5.191,7.962,0,8.063c33.305,0.607,66.612,1.228,99.914,1.841
		c9.728,0.174,19.461,0.363,29.192,0.535c1.749,0.037,3.477-1.243,3.885-2.96c7.905-32.546,15.807-65.1,23.707-97.649
		c1.548-6.37,3.091-12.735,4.641-19.103c-1.296,0.988-2.594,1.972-3.885,2.961c8.483,0,16.955,0,25.438,0
		c-1.345-1.344-2.688-2.688-4.032-4.032c0.026,4.257,0.058,8.514,0.085,12.772c1.343-1.344,2.688-2.688,4.031-4.032
		c-5.401,0.226-10.809,0.446-16.21,0.671c-1.649,0.071-3.597,1.166-3.885,2.961c-5.345,32.973-10.689,65.951-16.026,98.925
		c-1.527,9.464-3.066,18.93-4.599,28.398c1.296-0.992,2.589-1.974,3.885-2.961c-32.373,0-64.757,0-97.133,0
		c-16.336,0-32.673,0-49.009,0c1.344,1.345,2.688,2.688,4.032,4.032c0-8.803,0-17.596,0-26.395
		C34.774,113.198,26.711,113.198,26.711,118.405z"/>
	<path d="M166.479,186.616c-0.198,11.629-9.392,20.819-21.018,21.02c-11.629,0.199-20.825-9.691-21.02-21.02
		c-0.2-11.627,9.691-20.824,21.02-21.018C157.088,165.399,166.286,175.299,166.479,186.616c0.116,6.926,10.867,6.936,10.751,0
		c-0.289-16.693-12.655-29.644-29.014-31.628c-15.932-1.925-30.991,10.258-33.937,25.654c-3.102,16.189,6.98,31.891,22.599,36.567
		c16.016,4.797,32.194-4.635,38.336-19.506c1.434-3.466,1.947-7.359,2.016-11.093C177.352,179.683,166.601,179.692,166.479,186.616z
		"/>
	<path d="M86.045,186.616c-0.2,11.629-9.391,20.819-21.018,21.02c-11.628,0.199-20.825-9.691-21.02-21.02
		c-0.196-11.627,9.693-20.824,21.02-21.018C76.649,165.399,85.846,175.299,86.045,186.616c0.118,6.926,10.87,6.936,10.751,0
		c-0.287-16.693-12.654-29.644-29.012-31.628c-15.935-1.925-30.995,10.258-33.94,25.654c-3.097,16.189,6.981,31.891,22.597,36.567
		c16.018,4.797,32.199-4.635,38.338-19.506c1.434-3.466,1.95-7.359,2.017-11.093C96.915,179.683,86.164,179.692,86.045,186.616z"/>
	<path d="M26.061,40.891c6.704,0,13.407,0,20.11,0c-0.671-0.672-1.344-1.345-2.016-2.017c0,6.284,0,12.568,0,18.851
		c0.672-0.672,1.345-1.344,2.016-2.016c-3.349,0-6.704,0-10.052,0c0.58,0.333,1.16,0.667,1.74,1
		c-3.349-6.283-6.7-12.566-10.05-18.85c-1.226-2.294-4.703-0.257-3.483,2.036c3.346,6.284,6.701,12.567,10.05,18.851
		c0.327,0.62,1.055,1.003,1.743,1.003c3.349,0,6.704,0,10.052,0c1.095,0,2.016-0.921,2.016-2.016c0-6.286,0-12.57,0-18.854
		c0-1.097-0.921-2.016-2.016-2.016c-6.704,0-13.406,0-20.11,0C23.465,36.858,23.465,40.891,26.061,40.891z"/>
	<path d="M60.836,40.891c6.7,0,13.404,0,20.107,0c-0.671-0.672-1.343-1.345-2.016-2.017c0,6.284,0,12.568,0,18.851
		c0.672-0.672,1.344-1.344,2.016-2.016c-6.703,0-13.407,0-20.107,0c0.671,0.672,1.343,1.344,2.015,2.016c0-6.283,0-12.567,0-18.851
		c0-2.601-4.032-2.601-4.032,0c0,6.284,0,12.568,0,18.851c0,1.097,0.919,2.016,2.017,2.016c6.7,0,13.404,0,20.107,0
		c1.097,0,2.016-0.918,2.016-2.016c0-6.283,0-12.567,0-18.851c0-1.097-0.919-2.016-2.016-2.016c-6.703,0-13.407,0-20.107,0
		C58.231,36.858,58.231,40.891,60.836,40.891z"/>
	<path d="M93.092,40.891c6.983,0,13.964,0,20.952,0c-0.676-0.672-1.347-1.345-2.019-2.017c0,6.284,0,12.568,0,18.851
		c0.672-0.672,1.343-1.344,2.019-2.016c-6.988,0-13.969,0-20.952,0c0.672,0.672,1.345,1.344,2.017,2.016c0-6.283,0-12.567,0-18.851
		c0-2.601-4.032-2.601-4.032,0c0,6.284,0,12.568,0,18.851c0,1.097,0.919,2.016,2.015,2.016c6.983,0,13.964,0,20.952,0
		c1.091,0,2.016-0.918,2.016-2.016c0-6.283,0-12.567,0-18.851c0-1.097-0.925-2.016-2.016-2.016c-6.988,0-13.969,0-20.952,0
		C90.494,36.858,90.494,40.891,93.092,40.891z"/>
	<path d="M146.716,36.858c-6.697,0-13.402,0-20.105,0c-1.098,0-2.016,0.919-2.016,2.016c0,6.284,0,12.568,0,18.851
		c0,1.097,0.918,2.016,2.016,2.016c3.355,0,6.703,0,10.053,0c0.688,0,1.407-0.375,1.737-1c3.35-6.284,6.703-12.567,10.053-18.851
		c1.224-2.293-2.257-4.325-3.479-2.036c-3.355,6.283-6.705,12.566-10.053,18.85c0.576-0.333,1.158-0.667,1.742-1
		c-3.35,0-6.703,0-10.053,0c0.673,0.672,1.344,1.344,2.016,2.016c0-6.283,0-12.567,0-18.85c-0.672,0.671-1.343,1.344-2.016,2.015
		c6.703,0,13.408,0,20.105,0C149.318,40.891,149.318,36.858,146.716,36.858z"/>
	<path d="M36.956,69.376c6.097,0,12.196,0,18.294,0c-0.672-0.672-1.344-1.344-2.016-2.016c0,6.982,0,13.963,0,20.945
		c0.672-0.671,1.343-1.344,2.016-2.016c-3.05,0-6.098,0-9.15,0c0.58,0.336,1.16,0.667,1.743,1c-3.05-6.981-6.097-13.963-9.15-20.948
		c-1.037-2.375-4.509-0.321-3.483,2.036c3.048,6.984,6.094,13.966,9.147,20.951c0.275,0.628,1.097,0.998,1.743,0.998
		c3.047,0,6.095,0,9.15,0c1.095,0,2.015-0.919,2.015-2.016c0-6.982,0-13.964,0-20.945c0-1.097-0.92-2.016-2.015-2.016
		c-6.098,0-12.197,0-18.294,0C34.355,65.345,34.355,69.376,36.956,69.376z"/>
	<path d="M68.586,69.376c6.094,0,12.197,0,18.292,0c-0.672-0.672-1.344-1.344-2.017-2.016c0,6.982,0,13.963,0,20.945
		c0.672-0.671,1.344-1.344,2.017-2.016c-6.095,0-12.198,0-18.292,0c0.671,0.672,1.344,1.345,2.015,2.016c0-6.982,0-13.963,0-20.945
		c0-2.604-4.031-2.604-4.031,0c0,6.982,0,13.963,0,20.945c0,1.097,0.919,2.016,2.016,2.016c6.094,0,12.197,0,18.292,0
		c1.097,0,2.015-0.919,2.015-2.016c0-6.982,0-13.963,0-20.945c0-1.097-0.918-2.016-2.015-2.016c-6.095,0-12.198,0-18.292,0
		C65.991,65.345,65.991,69.376,68.586,69.376z"/>
	<path d="M97.936,69.376c6.354,0,12.701,0,19.059,0c-0.673-0.672-1.345-1.344-2.018-2.016c0,6.982,0,13.963,0,20.945
		c0.673-0.671,1.345-1.344,2.018-2.016c-6.357,0-12.704,0-19.059,0c0.671,0.672,1.344,1.345,2.016,2.016c0-6.982,0-13.963,0-20.945
		c0-2.604-4.031-2.604-4.031,0c0,6.982,0,13.963,0,20.945c0,1.097,0.918,2.016,2.016,2.016c6.354,0,12.701,0,19.059,0
		c1.097,0,2.016-0.919,2.016-2.016c0-6.982,0-13.963,0-20.945c0-1.097-0.919-2.016-2.016-2.016c-6.357,0-12.704,0-19.059,0
		C95.334,65.345,95.334,69.376,97.936,69.376z"/>
	<path d="M146.716,65.345c-6.095,0-12.194,0-18.29,0c-1.096,0-2.015,0.918-2.015,2.016c0,6.982,0,13.963,0,20.945
		c0,1.097,0.919,2.016,2.015,2.016c3.046,0,6.096,0,9.151,0c0.645,0,1.465-0.37,1.737-0.998c3.049-6.984,6.101-13.966,9.149-20.951
		c1.033-2.356-2.441-4.411-3.48-2.036c-3.051,6.984-6.095,13.966-9.15,20.948c0.578-0.334,1.16-0.667,1.744-1.001
		c-3.051,0-6.1,0-9.151,0c0.673,0.672,1.345,1.345,2.018,2.016c0-6.981,0-13.963,0-20.948c-0.673,0.671-1.345,1.344-2.018,2.016
		c6.096,0,12.195,0,18.29,0C149.318,69.376,149.318,65.345,146.716,65.345z"/>
</g>
<g>
</g>
<g>
</g>
<g>
</g>
<g>
</g>
<g>
</g>
<g>
</g>
<g>
</g>
<g>
</g>
<g>
</g>
<g>
</g>
<g>
</g>
<g>
</g>
<g>
</g>
<g>
</g>
<g>
</g>
</svg>
